<svg width="21" height="23" viewBox="0 0 21 23" fill="none" xmlns="http://www.w3.org/2000/svg">
<path d="M19.4934 2.96219L17.1628 0.631557C16.7584 0.227181 16.21 2.99034e-06 15.6381 0L7.90625 0C6.71537 0 5.75 0.965371 5.75 2.15625V4.3125H2.15625C0.965371 4.3125 0 5.27787 0 6.46875V20.8438C0 22.0346 0.965371 23 2.15625 23H12.2188C13.4096 23 14.375 22.0346 14.375 20.8438V18.6875H17.9688C19.1596 18.6875 20.125 17.7221 20.125 16.5312V4.48689C20.125 3.91501 19.8978 3.36657 19.4934 2.96219ZM11.9492 20.8438H2.42578C2.3543 20.8438 2.28574 20.8154 2.23519 20.7648C2.18465 20.7143 2.15625 20.6457 2.15625 20.5742V6.73828C2.15625 6.6668 2.18465 6.59824 2.23519 6.54769C2.28574 6.49715 2.3543 6.46875 2.42578 6.46875H5.75V16.5312C5.75 17.7221 6.71537 18.6875 7.90625 18.6875H12.2188V20.5742C12.2188 20.6457 12.1904 20.7143 12.1398 20.7648C12.0893 20.8154 12.0207 20.8438 11.9492 20.8438ZM17.6992 16.5312H8.17578C8.1043 16.5312 8.03574 16.5029 7.98519 16.4523C7.93465 16.4018 7.90625 16.3332 7.90625 16.2617V2.42578C7.90625 2.3543 7.93465 2.28574 7.98519 2.23519C8.03574 2.18465 8.1043 2.15625 8.17578 2.15625H12.9375V6.10938C12.9375 6.70481 13.4202 7.1875 14.0156 7.1875H17.9688V16.2617C17.9688 16.3332 17.9404 16.4018 17.8898 16.4523C17.8393 16.5029 17.7707 16.5312 17.6992 16.5312ZM17.9688 5.03125H15.0938V2.15625H15.5264C15.5979 2.15625 15.6665 2.18464 15.717 2.23518L17.8898 4.40796C17.9149 4.43299 17.9347 4.46271 17.9482 4.49541C17.9618 4.52811 17.9688 4.56317 17.9688 4.59856V5.03125Z" fill="#ADADAD"/>
</svg>
