<svg width="19" height="22" viewBox="0 0 19 22" fill="none" xmlns="http://www.w3.org/2000/svg">
<path d="M18.4911 6.78571C18.771 6.78571 19 6.5567 19 6.27679V4.58036C19 4.30045 18.771 4.07143 18.4911 4.07143H17.6429V2.03571C17.6429 0.91183 16.731 0 15.6071 0H2.03571C0.91183 0 0 0.91183 0 2.03571V19.6786C0 20.8025 0.91183 21.7143 2.03571 21.7143H15.6071C16.731 21.7143 17.6429 20.8025 17.6429 19.6786V17.6429H18.4911C18.771 17.6429 19 17.4138 19 17.1339V15.4375C19 15.1576 18.771 14.9286 18.4911 14.9286H17.6429V12.2143H18.4911C18.771 12.2143 19 11.9853 19 11.7054V10.0089C19 9.72902 18.771 9.5 18.4911 9.5H17.6429V6.78571H18.4911ZM15.6071 19.6786H2.03571V2.03571H15.6071V19.6786ZM8.82143 10.8571C10.3185 10.8571 11.5357 9.63996 11.5357 8.14286C11.5357 6.64576 10.3185 5.42857 8.82143 5.42857C7.32433 5.42857 6.10714 6.64576 6.10714 8.14286C6.10714 9.63996 7.32433 10.8571 8.82143 10.8571ZM5.02143 16.2857H12.6214C13.1473 16.2857 13.5714 15.921 13.5714 15.4714V14.6571C13.5714 13.3085 12.2949 12.2143 10.7214 12.2143C10.2634 12.2143 9.92835 12.5536 8.82143 12.5536C7.68058 12.5536 7.40491 12.2143 6.92143 12.2143C5.34799 12.2143 4.07143 13.3085 4.07143 14.6571V15.4714C4.07143 15.921 4.49554 16.2857 5.02143 16.2857Z" fill="white"/>
</svg>
