<svg width="14" height="10" viewBox="0 0 14 10" fill="none" xmlns="http://www.w3.org/2000/svg">
<path d="M7 1.94445C6.74239 1.94847 6.48669 1.9894 6.24069 2.06598C6.35448 2.26609 6.41507 2.49203 6.41667 2.72223C6.41667 2.90097 6.38146 3.07797 6.31306 3.2431C6.24465 3.40824 6.1444 3.55829 6.018 3.68468C5.89161 3.81107 5.74157 3.91133 5.57643 3.97973C5.41129 4.04814 5.2343 4.08334 5.05555 4.08334C4.82536 4.08174 4.59941 4.02116 4.3993 3.90737C4.24142 4.45492 4.25982 5.03828 4.4519 5.57479C4.64398 6.11131 4.99999 6.57379 5.46952 6.89673C5.93904 7.21966 6.49827 7.38669 7.068 7.37414C7.63772 7.36158 8.18906 7.17009 8.6439 6.82679C9.09875 6.48349 9.43405 6.00577 9.60231 5.46132C9.77058 4.91686 9.76327 4.33327 9.58142 3.7932C9.39958 3.25313 9.05242 2.78396 8.58912 2.45216C8.12582 2.12035 7.56986 1.94273 7 1.94445ZM13.9154 4.31181C12.5973 1.74004 9.98789 0 7 0C4.01211 0 1.40193 1.74125 0.0845702 4.31206C0.0289692 4.42204 0 4.54356 0 4.6668C0 4.79004 0.0289692 4.91155 0.0845702 5.02154C1.40266 7.59331 4.01211 9.33335 7 9.33335C9.98789 9.33335 12.5981 7.5921 13.9154 5.02129C13.971 4.91131 14 4.78979 14 4.66655C14 4.54331 13.971 4.4218 13.9154 4.31181ZM7 8.16668C4.60225 8.16668 2.40405 6.82987 1.21697 4.66668C2.40405 2.50348 4.60201 1.16667 7 1.16667C9.39799 1.16667 11.5959 2.50348 12.783 4.66668C11.5962 6.82987 9.39799 8.16668 7 8.16668Z" fill="#96A58A"/>
</svg>
