<svg width="24" height="19" viewBox="0 0 24 19" fill="none" xmlns="http://www.w3.org/2000/svg">
<path d="M22 0H2C0.895833 0 0 0.895833 0 2V16.6667C0 17.7708 0.895833 18.6667 2 18.6667H22C23.1042 18.6667 24 17.7708 24 16.6667V2C24 0.895833 23.1042 0 22 0ZM22 16.6667H2V2H22V16.6667ZM8.66667 9.33333C10.1375 9.33333 11.3333 8.1375 11.3333 6.66667C11.3333 5.19583 10.1375 4 8.66667 4C7.19583 4 6 5.19583 6 6.66667C6 8.1375 7.19583 9.33333 8.66667 9.33333ZM4.93333 14.6667H12.4C12.9167 14.6667 13.3333 14.3083 13.3333 13.8667V13.0667C13.3333 11.7417 12.0792 10.6667 10.5333 10.6667C10.0833 10.6667 9.75417 11 8.66667 11C7.54583 11 7.275 10.6667 6.8 10.6667C5.25417 10.6667 4 11.7417 4 13.0667V13.8667C4 14.3083 4.41667 14.6667 4.93333 14.6667ZM15 12H19.6667C19.85 12 20 11.85 20 11.6667V11C20 10.8167 19.85 10.6667 19.6667 10.6667H15C14.8167 10.6667 14.6667 10.8167 14.6667 11V11.6667C14.6667 11.85 14.8167 12 15 12ZM15 9.33333H19.6667C19.85 9.33333 20 9.18333 20 9V8.33333C20 8.15 19.85 8 19.6667 8H15C14.8167 8 14.6667 8.15 14.6667 8.33333V9C14.6667 9.18333 14.8167 9.33333 15 9.33333ZM15 6.66667H19.6667C19.85 6.66667 20 6.51667 20 6.33333V5.66667C20 5.48333 19.85 5.33333 19.6667 5.33333H15C14.8167 5.33333 14.6667 5.48333 14.6667 5.66667V6.33333C14.6667 6.51667 14.8167 6.66667 15 6.66667Z" fill="white"/>
</svg>
