<svg width="20" height="20" viewBox="0 0 20 20" fill="none" xmlns="http://www.w3.org/2000/svg">
<path d="M19.4492 5.54811L17.6483 7.34897C17.4647 7.53258 17.1678 7.53258 16.9842 7.34897L12.6481 3.01283C12.4645 2.82923 12.4645 2.53234 12.6481 2.34874L14.449 0.547877C15.1795 -0.182626 16.367 -0.182626 17.1014 0.547877L19.4492 2.89564C20.1836 3.62614 20.1836 4.8137 19.4492 5.54811ZM11.1012 3.89569L0.842864 14.154L0.0147001 18.9003C-0.0985864 19.5409 0.460033 20.0957 1.10069 19.9863L5.847 19.1542L16.1053 8.89592C16.2889 8.71232 16.2889 8.41543 16.1053 8.23183L11.7692 3.89569C11.5816 3.71209 11.2848 3.71209 11.1012 3.89569ZM4.84696 13.275C4.6321 13.0602 4.6321 12.7164 4.84696 12.5016L10.8629 6.48565C11.0777 6.2708 11.4215 6.2708 11.6363 6.48565C11.8512 6.70051 11.8512 7.04427 11.6363 7.25912L5.62043 13.275C5.40557 13.4899 5.06181 13.4899 4.84696 13.275ZM3.43673 16.5603H5.31182V17.9784L2.79217 18.4198L1.57727 17.2049L2.0187 14.6852H3.43673V16.5603Z" fill="#ADADAD"/>
</svg>
