<svg width="19" height="22" viewBox="0 0 19 22" fill="none" xmlns="http://www.w3.org/2000/svg">
<path d="M11.3661 17.6429H12.3839C12.5189 17.6429 12.6484 17.5892 12.7438 17.4938C12.8392 17.3984 12.8929 17.2689 12.8929 17.1339V7.97321C12.8929 7.83824 12.8392 7.70879 12.7438 7.61335C12.6484 7.5179 12.5189 7.46429 12.3839 7.46429H11.3661C11.2311 7.46429 11.1016 7.5179 11.0062 7.61335C10.9108 7.70879 10.8571 7.83824 10.8571 7.97321V17.1339C10.8571 17.2689 10.9108 17.3984 11.0062 17.4938C11.1016 17.5892 11.2311 17.6429 11.3661 17.6429ZM18.3214 3.39286H14.8264L13.3844 0.98817C13.2034 0.686636 12.9474 0.437124 12.6414 0.263946C12.3353 0.0907684 11.9896 -0.000167242 11.6379 2.30903e-07H7.36208C7.01055 -2.07291e-05 6.66501 0.0909845 6.3591 0.264155C6.05319 0.437325 5.79734 0.686759 5.61645 0.98817L4.17364 3.39286H0.678571C0.498603 3.39286 0.326006 3.46435 0.198749 3.59161C0.0714922 3.71886 0 3.89146 0 4.07143L0 4.75C0 4.92997 0.0714922 5.10257 0.198749 5.22982C0.326006 5.35708 0.498603 5.42857 0.678571 5.42857H1.35714V19.6786C1.35714 20.2185 1.57162 20.7363 1.95339 21.118C2.33516 21.4998 2.85295 21.7143 3.39286 21.7143H15.6071C16.147 21.7143 16.6648 21.4998 17.0466 21.118C17.4284 20.7363 17.6429 20.2185 17.6429 19.6786V5.42857H18.3214C18.5014 5.42857 18.674 5.35708 18.8013 5.22982C18.9285 5.10257 19 4.92997 19 4.75V4.07143C19 3.89146 18.9285 3.71886 18.8013 3.59161C18.674 3.46435 18.5014 3.39286 18.3214 3.39286ZM7.28786 2.15913C7.31054 2.12138 7.34262 2.09016 7.38098 2.06853C7.41934 2.0469 7.46266 2.03559 7.5067 2.03571H11.4933C11.5373 2.03566 11.5805 2.04701 11.6188 2.06864C11.6571 2.09026 11.6891 2.12144 11.7117 2.15913L12.4522 3.39286H6.54779L7.28786 2.15913ZM15.6071 19.6786H3.39286V5.42857H15.6071V19.6786ZM6.61607 17.6429H7.63393C7.7689 17.6429 7.89835 17.5892 7.99379 17.4938C8.08924 17.3984 8.14286 17.2689 8.14286 17.1339V7.97321C8.14286 7.83824 8.08924 7.70879 7.99379 7.61335C7.89835 7.5179 7.7689 7.46429 7.63393 7.46429H6.61607C6.48109 7.46429 6.35165 7.5179 6.2562 7.61335C6.16076 7.70879 6.10714 7.83824 6.10714 7.97321V17.1339C6.10714 17.2689 6.16076 17.3984 6.2562 17.4938C6.35165 17.5892 6.48109 17.6429 6.61607 17.6429Z" fill="#FF0000" fill-opacity="0.4"/>
</svg>
