<svg width="20" height="22" viewBox="0 0 20 22" fill="none" xmlns="http://www.w3.org/2000/svg">
<path d="M19.25 15.4688V1.03125C19.25 0.459766 18.7902 0 18.2188 0H4.125C1.84766 0 0 1.84766 0 4.125V17.875C0 20.1523 1.84766 22 4.125 22H18.2188C18.7902 22 19.25 21.5402 19.25 20.9688V20.2812C19.25 19.959 19.0996 19.6668 18.8676 19.4777C18.6871 18.816 18.6871 16.9297 18.8676 16.268C19.0996 16.0832 19.25 15.791 19.25 15.4688ZM5.5 5.75781C5.5 5.61602 5.61602 5.5 5.75781 5.5H14.8672C15.009 5.5 15.125 5.61602 15.125 5.75781V6.61719C15.125 6.75898 15.009 6.875 14.8672 6.875H5.75781C5.61602 6.875 5.5 6.75898 5.5 6.61719V5.75781ZM5.5 8.50781C5.5 8.36602 5.61602 8.25 5.75781 8.25H14.8672C15.009 8.25 15.125 8.36602 15.125 8.50781V9.36719C15.125 9.50898 15.009 9.625 14.8672 9.625H5.75781C5.61602 9.625 5.5 9.50898 5.5 9.36719V8.50781ZM16.3883 19.25H4.125C3.36445 19.25 2.75 18.6355 2.75 17.875C2.75 17.1187 3.36875 16.5 4.125 16.5H16.3883C16.3066 17.2348 16.3066 18.5152 16.3883 19.25Z" fill="#34BF4C"/>
</svg>
