<svg width="23" height="25" viewBox="0 0 23 25" fill="none" xmlns="http://www.w3.org/2000/svg">
<path d="M22.7062 14.9L20.6427 13.7084C20.851 12.5846 20.851 11.4317 20.6427 10.3079L22.7062 9.11633C22.9436 8.98069 23.0501 8.69975 22.9726 8.43817C22.435 6.71374 21.5195 5.15399 20.323 3.85581C20.1389 3.65721 19.8386 3.60877 19.6061 3.7444L17.5426 4.93601C16.6755 4.19005 15.6777 3.61362 14.5975 3.23579V0.857421C14.5975 0.586161 14.4086 0.348808 14.1422 0.290681C12.3644 -0.106521 10.5431 -0.0871454 8.85258 0.290681C8.58617 0.348808 8.39725 0.586161 8.39725 0.857421V3.24064C7.3219 3.62331 6.32405 4.19973 5.45214 4.94086L3.39347 3.74925C3.15612 3.61362 2.86064 3.65721 2.67657 3.86066C1.48012 5.15399 0.564614 6.71373 0.026938 8.44302C-0.0554088 8.70459 0.0560016 8.98554 0.293354 9.12117L2.35687 10.3128C2.14858 11.4366 2.14858 12.5894 2.35687 13.7132L0.293354 14.9048C0.0560016 15.0405 -0.0505649 15.3214 0.026938 15.583C0.564614 17.3074 1.48012 18.8672 2.67657 20.1653C2.86064 20.3639 3.16096 20.4124 3.39347 20.2767L5.45699 19.0851C6.32405 19.8311 7.3219 20.4075 8.4021 20.7854V23.1686C8.4021 23.4398 8.59101 23.6772 8.85743 23.7353C10.6351 24.1325 12.4565 24.1131 14.147 23.7353C14.4134 23.6772 14.6023 23.4398 14.6023 23.1686V20.7854C15.6777 20.4027 16.6755 19.8263 17.5474 19.0851L19.611 20.2767C19.8483 20.4124 20.1438 20.3688 20.3279 20.1653C21.5243 18.872 22.4398 17.3123 22.9775 15.583C23.0501 15.3166 22.9436 15.0356 22.7062 14.9ZM11.4974 15.8833C9.36119 15.8833 7.62222 14.1443 7.62222 12.0082C7.62222 9.87198 9.36119 8.13301 11.4974 8.13301C13.6335 8.13301 15.3725 9.87198 15.3725 12.0082C15.3725 14.1443 13.6335 15.8833 11.4974 15.8833Z" fill="#ADADAD"/>
</svg>
