<svg width="27" height="21" viewBox="0 0 27 21" fill="none" xmlns="http://www.w3.org/2000/svg">
<path d="M25.4164 0.00254559C22.8477 0.148326 17.7421 0.678949 14.5902 2.60831C14.3727 2.74144 14.2495 2.97816 14.2495 3.22565V20.282C14.2495 20.8234 14.8415 21.1656 15.3407 20.9143C18.5835 19.2821 23.2733 18.8368 25.5922 18.715C26.3839 18.6732 26.9994 18.0385 26.9994 17.2778V1.4416C26.9999 0.611449 26.2799 -0.0462042 25.4164 0.00254559ZM12.4092 2.60831C9.25777 0.678949 4.15217 0.148795 1.58343 0.00254559C0.719996 -0.0462042 0 0.611449 0 1.4416V17.2782C0 18.0395 0.615466 18.6742 1.40718 18.7154C3.72701 18.8373 8.41918 19.2831 11.662 20.9162C12.1598 21.167 12.7499 20.8253 12.7499 20.2853V3.21722C12.7499 2.96925 12.6271 2.74191 12.4092 2.60831Z" fill="#34BF4C"/>
</svg>
