<svg width="28" height="22" viewBox="0 0 28 22" fill="none" xmlns="http://www.w3.org/2000/svg">
<path d="M13.6288 5.64866L4.66704 13.0297V20.996C4.66704 21.2022 4.74897 21.4 4.89482 21.5459C5.04067 21.6917 5.23849 21.7737 5.44475 21.7737L10.8917 21.7596C11.0973 21.7585 11.2941 21.6762 11.4391 21.5304C11.5841 21.3847 11.6655 21.1874 11.6655 20.9819V16.3296C11.6655 16.1234 11.7475 15.9256 11.8933 15.7797C12.0392 15.6339 12.237 15.5519 12.4432 15.5519H15.5541C15.7604 15.5519 15.9582 15.6339 16.104 15.7797C16.2499 15.9256 16.3318 16.1234 16.3318 16.3296V20.9785C16.3315 21.0808 16.3514 21.1822 16.3903 21.2768C16.4293 21.3715 16.4865 21.4575 16.5588 21.53C16.631 21.6024 16.7169 21.6599 16.8114 21.6992C16.9059 21.7384 17.0072 21.7586 17.1096 21.7586L22.5545 21.7737C22.7608 21.7737 22.9586 21.6917 23.1045 21.5459C23.2503 21.4 23.3323 21.2022 23.3323 20.996V13.0243L14.3725 5.64866C14.2671 5.56376 14.1359 5.51746 14.0006 5.51746C13.8653 5.51746 13.7341 5.56376 13.6288 5.64866ZM27.7847 10.6654L23.7211 7.3159V0.583288C23.7211 0.428591 23.6597 0.280229 23.5503 0.170841C23.4409 0.0614535 23.2925 0 23.1378 0H20.4158C20.2611 0 20.1128 0.0614535 20.0034 0.170841C19.894 0.280229 19.8325 0.428591 19.8325 0.583288V4.11267L15.4807 0.532251C15.0631 0.188586 14.539 0.00068699 13.9982 0.00068699C13.4573 0.00068699 12.9333 0.188586 12.5157 0.532251L0.211684 10.6654C0.15262 10.7142 0.103754 10.7742 0.0678782 10.8419C0.0320021 10.9096 0.00981906 10.9838 0.00259668 11.06C-0.0046257 11.1363 0.0032541 11.2133 0.0257858 11.2865C0.0483176 11.3598 0.0850596 11.4279 0.133913 11.4869L1.3734 12.9937C1.42212 13.053 1.48205 13.102 1.54975 13.1381C1.61745 13.1741 1.69159 13.1965 1.76794 13.2038C1.84429 13.2112 1.92134 13.2034 1.99468 13.181C2.06802 13.1585 2.13621 13.1218 2.19535 13.073L13.6288 3.65576C13.7341 3.57086 13.8653 3.52456 14.0006 3.52456C14.1359 3.52456 14.2671 3.57086 14.3725 3.65576L25.8064 13.073C25.8654 13.1218 25.9335 13.1585 26.0067 13.1811C26.08 13.2036 26.1569 13.2115 26.2332 13.2043C26.3095 13.197 26.3836 13.1749 26.4513 13.139C26.5191 13.1031 26.579 13.0542 26.6278 12.9952L27.8673 11.4884C27.9161 11.429 27.9527 11.3605 27.975 11.287C27.9973 11.2134 28.0048 11.1362 27.9971 11.0597C27.9894 10.9832 27.9667 10.909 27.9302 10.8414C27.8938 10.7737 27.8443 10.7139 27.7847 10.6654Z" fill="#34BF4C"/>
</svg>
